<?xml version="1.0" encoding="utf-8"?>
<!-- Generator: Adobe Illustrator 15.0.0, SVG Export Plug-In . SVG Version: 6.00 Build 0)  -->
<!DOCTYPE svg PUBLIC "-//W3C//DTD SVG 1.1//EN" "http://www.w3.org/Graphics/SVG/1.1/DTD/svg11.dtd">
<svg version="1.1" id="Layer_1" xmlns="http://www.w3.org/2000/svg" xmlns:xlink="http://www.w3.org/1999/xlink" x="0px" y="0px"
	 width="859.827px" height="475.477px" viewBox="0 0 859.827 475.477" enable-background="new 0 0 859.827 475.477"
	 xml:space="preserve">
<path d="M1096.059,330.655C1096.639,328.686,1096.639,332.636,1096.059,330.655L1096.059,330.655z"/>
<path d="M1096.059,333.655C1096.639,331.686,1096.639,335.636,1096.059,333.655L1096.059,333.655z"/>
<path d="M1096.059,348.155C1096.639,346.186,1096.639,350.136,1096.059,348.155L1096.059,348.155z"/>
<path fill="#0000FF" stroke="#0000FF" d="M577.278,215.08c1.72,3.95,6.96,4.37,10.5,6.5c-39.14-0.28-55.889,0.596-91.024-19.174
	c-19.069-10.729-32.265-36.04-49.726-47.76c-29.31-23.86-75.84-34.83-129.01-36.5c-7.3,2.08-21.04,0.23-22.5,6.5
	c59.16-11.03,128.1,6.63,159.01,40.01c16.226,15,25.597,32.128,42.226,40.25c33.568,16.396,52.795,18.284,93.524,18.674
	c-1.31,4.85-8.22,4.11-8,10.5c6.587-0.125,12.711-7.417,19.226-9.731c0-0.506,0-1.013,0-1.519
	C593.623,220.303,582.795,213.203,577.278,215.08z"/>
<path stroke="#000000" d="M601.504,222.83c0,0.506,0,1.013,0,1.519"/>
<g>
	<path stroke="#000000" d="M817.538,175.656c-1.439,0.92-6.699-0.25-8-0.5c-2.829,2.83-1.3,12.68-5,13c-2.47-3.69-3.96-8.38-5.5-13
		c2.141-1.42,4.74-1.46,7-1c3.391-4.12,1.971-13.04,4-18.51c3.61,4.68,0.061,12.75-0.5,18.01
		C812.068,174.466,815.358,174.506,817.538,175.656z M804.538,183.156c0.921-1.77,1.73-6.26,1.5-7.5c-0.689,1.14-3.479,0.18-5,0.5
		C802.408,178.286,802.549,181.646,804.538,183.156z"/>
	<path stroke="#000000" d="M797.538,187.156c-5.6-0.73-4.84-7.82-7-12c-5.39,2.43-6.04,9.62-11.5,12c-1.449-5.02,0.69-10.6,1.5-15
		c0.5,0,1,0,1.5,0c-0.5,3.1-0.04,6.01-0.5,10c3.341-2.84,4.45-7.9,9-9.5c0.08,0.58,0.921,0.42,1.5,0.5
		C794.049,177.646,795.368,182.826,797.538,187.156z"/>
	<path stroke="#000000" d="M770.599,172.876c3.08,2.51,3.399,6.82-6.061,8.78c1.131,2.61,5.16,2.4,8,2c-6.39,3.63-12.159-1.92-20-1
		c-0.819-2.02-1.829-3.84-2-6.5c-4.409,1.36-6.55,7.29-12,6c0.391-1.89-0.609-2.39-0.5-4c-2.359-0.18-0.949,3.71-3.5,2
		c1.98,2.21-0.04,6.21-1,8.5c-4.14-1.16-2.6-11.15-1.5-14.5c2.801,0.03,0.98,4.68,1.5,7c2.301-2.04,1.181-7.49,5.5-7.5
		c0.78,1.89,0.421,4.92,1.5,6.5c4.771-1.41,6.881-5.46,11-7.5c2.851,1.04,0.971,6.6,3,9.5c1.16-1.01,3.131-1.21,5.5-1
		c-1.939-11.29,5.891-11.53,10.051-8.66c-5.15-1.79-9.48,2.67-7.551,7.66C766.849,179.566,771.969,177.666,770.599,172.876z"/>
	<path stroke="#000000" d="M770.538,172.656c0.021,0.07,0.051,0.15,0.061,0.22c-0.16-0.13-0.33-0.26-0.51-0.38
		C770.238,172.536,770.389,172.596,770.538,172.656z"/>
	<path stroke="#000000" d="M767.538,263.156c2.48,8.07-5.84,9.41-8,14.5c3.7,1.471,9.37,0.971,13,2.5c-3.05,1.021-12.05,1.2-15-1
		c0.04,2.211,0.101,4.431-2,4.5C751.948,273.206,756.459,259.176,767.538,263.156z M765.538,265.156c-2,0-4,0-6,0
		c-0.609,1.86-1.39,2.93,0,4.5c-0.739,0.58-1.26,0.58-2,0c0.91,1.71-0.069,2.4,0,4.5
		C761.328,272.276,765.238,270.516,765.538,265.156z"/>
	<path stroke="#000000" d="M748.538,223.656c3.21,3.12,8.011-0.49,13.5,0.5c-14.89,11.3-22.76-9.69-4.5-11
		c-0.13,1.46,1.131,1.53,1,3C754.629,214.646,749.049,218.596,748.538,223.656z"/>
	<path stroke="#000000" d="M747.538,268.656c-1.05,5.28-5.05,7.61-10.5,8.5c0.891,4.921,8.03,4.36,12.5,3c-8,5.851-13.76-1.329-20-4
		c-0.3-1.97,2.75-0.59,4-1C731.788,266.146,744.568,259.566,747.538,268.656z M745.538,267.656c-0.63-0.2-1.02-0.64-1-1.5
		c-6.68-0.85-8.17,3.5-8.5,9C740.559,274.016,745.448,273.226,745.538,267.656z"/>
	<path stroke="#000000" d="M738.038,198.656c3.381,1.11,2.28,6.72,5,8.5C740.788,206.896,737.719,203.146,738.038,198.656z"/>
	<path stroke="#000000" d="M741.538,214.156c-2.829,3.01-2.14,9.53-4.5,13C734.328,224.176,737.339,215.106,741.538,214.156z"/>
	<path stroke="#000000" d="M724.538,213.656c1.771,2.89,4.061,5.27,4,10c-1.93,2.23-5.619,2.71-10,2.5c-0.59,6.09,1.98,9.02,2,14.5
		c-5.279-4.5-5.869-18.09-4-26.5C718.738,213.216,721.889,212.776,724.538,213.656z M726.038,222.656c0.601-9.04-9.829-9.22-8.5,0.5
		c2.021-0.69,1.58,1.08,3,1C722.238,223.526,724.339,223.286,726.038,222.656z"/>
	<path stroke="#000000" d="M726.538,174.156c0.301,4.19,0.811,8.19,1.5,12c-3.75-0.41-3.14-5.2-3.5-9c-3.649,2.68-6.56,6.11-11,8
		c-1.329-1.34-0.989-4.35-2-6c-3.38,2.45-4.01,7.65-8,9.5c-3.64-0.5-2.42-12.92,0-12c1.2,0.77-0.75,5.5,0,9
		c4.29-2.05,5.2-7.48,7.5-11.5c4.21-0.21,0.96,7.03,4,8C719.688,180.306,721.408,175.516,726.538,174.156z"/>
	<path stroke="#000000" d="M721.538,265.156c0.171,1.67,1.45,2.22,1,4.5c-1.8-0.7-2.159-2.84-4-3.5c-1.989,1.01-6.05-0.05-7,2
		c3.08,6.26,13.54,5.13,15,13c-1.1,4.61-15.05,4.521-15-1c2.79,0.221,9.471,3.95,12,0.5c-2.77-5.229-9.81-6.189-14-10
		c0-1.33,0-2.67,0-4C712.618,264.816,717.559,263.326,721.538,265.156z"/>
	<path stroke="#000000" d="M704.038,215.156c18.601,6.24-11.84,26.95-10,7c-2.17,0-4.329,0-6.5,0c-0.55,3.66,2.94,5.56,2.5,7.5
		c-3.659,1.06-4.64-4.63-5.5-8c-3.989-2.73-10.1-0.26-12-5c3.351-0.76,7.351,1.91,11.5,2c0.221-3.56-0.949-10.05-0.5-15.5
		c4.511,1.98,1.761,11.24,3.5,16C694.738,222.526,699.488,219.046,704.038,215.156z M696.538,226.656c8.561,9.47,17.03-13.44,5-8
		c1.221,1.64,1.86,2.97,0,4.5c-0.51-1.16-2.3-1.04-4-1C696.509,222.956,696.379,224.666,696.538,226.656z"/>
	<path stroke="#000000" d="M700.538,263.156c6.021,4.46,1.641,15.47-2,20c-9.47-0.369-12.18-10.129-11.5-19
		c4.141,4.53,2.971,14.36,9.5,16.5C701.948,278.016,700.448,268.616,700.538,263.156z"/>
	<path stroke="#000000" d="M686.538,175.656c18.25-11.66,15.61,20.13,0.5,10c-19.34,15.01-27.51-22.54-9.5-13.5
		c-0.17,2.31-1.71-1.25-3-1c-13.609,5.89,0.99,21.57,12,13C684.898,181.636,685.919,178.536,686.538,175.656z M690.038,185.156
		c7.271,3.59,13.15-11.17,2.5-10C695.309,179.056,691.509,182.456,690.038,185.156z M688.538,183.156c2.5-0.51,3.4-2.6,3-6
		C687.919,176.546,687.769,180.896,688.538,183.156z"/>
	<path stroke="#000000" d="M660.538,282.155c4.931-2.789,12.23-2.75,19-2.5C675.669,282.126,666.438,282.716,660.538,282.155z"/>
	<path stroke="#000000" d="M655.538,230.156c6.69-1.1,11.921-0.68,19.5-1C670.469,231.676,660.108,233.236,655.538,230.156z"/>
	<path stroke="#000000" d="M645.538,185.156c2.471-2.2,8.9-0.44,13-1C655.318,185.276,648.988,187.476,645.538,185.156z"/>
	<path stroke="#000000" d="M657.038,283.155c-2.659,0.33-4.04-0.619-5-2c-3.39,3.261-14.68,8.351-18.5,2
		c0.681-6.479,5.91-11.08,12-10.5c-2.34,3.99-9.329,3.35-9,10c4.15,3.261,11.641,0.15,14-3c-3.26-6.76-8.55-14.1-7.5-23.5
		c3.87,5.39,3.98,16.89,9.5,19C652.148,279.046,654.019,281.235,657.038,283.155z"/>
	<path stroke="#000000" d="M647.038,233.656c-2.59,1.9-3.819-1.84-5.5-2.5c-4.1,0.98-12.05,2.34-14-1.5c1.04-4.96,6.271-5.73,10-8
		c0.551-6.05-5.46-14.52-1-18c0.721,9.98,5.101,17.46,6,24.5c1.761,0.27,2.57-0.43,3-1.5c0.91,0.62-1.079,2.55-1.5,3.5
		C644.799,231.566,645.379,233.136,647.038,233.656z M640.538,229.156c-0.96-1.71-1.09-4.25-2.5-5.5c-2.25,1.92-6.42,1.92-7.5,5
		C632.238,231.506,638.889,229.856,640.538,229.156z"/>
	<path stroke="#000000" d="M642.538,185.656c-1.77,2.07-5.79-1.29-6.5-3.5c-3.76,1.08-6.359,3.31-11,3.5
		c-7.18-3.76,0.96-11.26,6.5-11.5c-0.64-4.7-3.56-7.11-4-12C635.469,169.206,634.139,180.096,642.538,185.656z M634.538,180.656
		c-0.29-2.39-0.84-4.51-3-5c-3.069,1.6-6.869,2.46-7,7C628.209,184.216,632.129,182.006,634.538,180.656z"/>
	<path stroke="#000000" d="M623.038,264.656c-2.359,0.18-6.22-2.44-7-5.5C619.599,259.756,620.288,263.236,623.038,264.656z"/>
	<path stroke="#000000" d="M618.538,276.655c2.511,1.16,4.44,8.5,3.5,13C619.038,287.146,619.028,281.666,618.538,276.655z"/>
	<path stroke="#000000" d="M620.038,211.156c-1.52,0.72-4.579-3.59-3-6C618.498,206.686,618.908,209.276,620.038,211.156z"/>
	<path stroke="#000000" d="M618.538,215.156c-2.02,2.09,0.351,5.12,0,8v1c-0.84,2.75-1.359,7.62-1,10
		C621.009,231.156,621.988,218.926,618.538,215.156z"/>
	<path stroke="#000000" d="M616.538,162.656c-1.359,1.01-4.5-2.62-3-4.51C615.769,158.416,614.959,161.726,616.538,162.656z"/>
	<path stroke="#000000" d="M611.038,169.156c3.7,3.49,3.591,13.36,3,19.5C610.459,183.776,611.698,176.126,611.038,169.156z"/>
</g>
<path fill="#0000FF" stroke="#0000FF" d="M591.528,281.655c0.75-0.22-0.189-0.64,0-1.5c9.22,1.671,14.97,4.75,17.01,11.5
	c-1.609,1.461-2.189-1.14-3.51-1.5c-4.72,2.28-6.28,7.721-12.5,8.5c0.42-4.579,3.86-6.14,6.5-8.5
	c-27.608,7.241-35.441,24.907-36,45.5c-1.81,66.705-20.22,107.28-69.53,113.261v-2.08c4.33-0.4,8.62-0.851,12.53-1.67
	c42.54-12.471,52.818-49.787,54.5-111.011c0.607-22.133,17.739-43.085,40.059-46.426"/>
<g>
	<path fill="#FF0000" stroke="#FF0000" d="M805.538,135.146c12.341,0.62,26.08-1.18,35.011,1c-9.511,2.33-23.33,0.34-34.511,1
		c-1.46,0.54,0.471,4.47-1,5c-2.729,0.41-1.829-2.83-2-5c-77.149,6.37-152.27,13.41-225.51,20c62.07-10.77,141.84-13.14,207.01-21
		c-2.689-3.8-3.43-13.9-7.5-18c-5.38,2.96-6.489,10.17-9.5,15.5c-3.43-3.39-4.25-12.07-4-17.5c4.221,0.95,1.301,6.96,4,10
		c3.49-3.51,4.351-9.65,10.5-10.5c4.921,4.28,6.91,14.08,8,20.5c6.32,0.48,10.78-0.89,16.5-1c0.32-6.18-0.64-13.64,0.5-19
		c-3.229-1.08-9.239-1.97-9.5,1c-1.85-0.81-4.25-1.08-5-3c2.721-2.28,9.641-0.37,14-1c1.551-5.31-0.26-10.91,2-15.5
		c2.79,2.52,0.101,9.69,1,15c8.061,2.03,16.921-1.1,22.511,3.5c-4.271-1.43-15.011-1.28-22.511-0.5
		C804.578,121.246,804.938,129.496,805.538,135.146z"/>
	<path fill="#FF0000" stroke="#FF0000" d="M753.538,115.146c0.931,9.77-6.71,10.96-12.5,14c2.591,8.82,14.391,4.13,21.5,2.5
		c-5.949,5.53-20.43,8.06-24-1c-1.79,0.14-3.88,1.75-5.5,0.5c0.25-2.08,3.08-1.58,4.5-2.5
		C734.589,117.796,744.589,110.926,753.538,115.146z M752.038,117.146c-6.04-4.87-13.989,2.42-12.5,10
		C744.288,126.366,750.919,123.216,752.038,117.146z"/>
	<path fill="#FF0000" stroke="#FF0000" d="M726.538,133.146c0.311,1.98-2.75,0.59-4,1c-2.84-3.82-3.06-10.27-5-15
		c-3.659,2.68-4.979,7.69-10,9c-3.26-1.24-3.68-5.31-4.5-9c-3.96,3.04-3.93,10.07-6,15c-4.239-2.85-2.63-15.44-1.5-20.5
		c2.65,1.47,0.2,6.86,1,11c3.351-2.48,2.95-8.72,7-10.5c2.311,2.53,1.91,7.76,3.5,11c5.86-0.97,6.311-7.35,11.5-9
		C723.229,119.786,720.038,131.316,726.538,133.146z"/>
	<path fill="#FF0000" stroke="#FF0000" d="M682.038,112.146c3.71,3.79,2.41,12.59,5.5,17c-5.359-1.31-4.869-8.47-6-14
		c-4.92,3.25-8.319,8.02-13,11.5c-2.59-1.58-4.02-4.31-4-8.5c-4.35,3.16-4.369,10.63-8.5,14c-3.31-2.73-1.64-10.7-3.5-16
		c3.7-0.46,3.45,6.25,4,10.5c3.591-3.57,4.271-10.06,9-12.5c0.66,2.19,0.87,6.88,2.5,9.5
		C673.519,120.636,677.379,115.996,682.038,112.146z"/>
	<path fill="#FF0000" stroke="#FF0000" d="M644.538,118.146c1.641,12.38-8.42,18.95-20.5,17.5c-5-4.65-0.869-13.5,0-18.5
		C629.068,113.506,640.328,114.996,644.538,118.146z M629.538,121.646c-19.06,10.95,14.73,18.32,13.5-1
		c-2.319-4.15-14.239-5.15-17.5-1C627.448,118.626,629.288,119.616,629.538,121.646z"/>
	<path fill="#FF0000" stroke="#FF0000" d="M620.538,96.146c0,1.67,0,3.34,0,5c-2.68-0.82-1.819-5.18-4-6.5
		c-21.649-8.38-40.229,27.09-22.01,40c10.03-0.14,15.9-4.44,25.01-5.5c-9.1,6.31-32.439,14.17-35.01-3
		c-0.21-21.55,8.23-34.44,29.01-35C616.618,92.066,618.759,93.926,620.538,96.146z"/>
	<path stroke="#FF0000" d="M581.528,134.146C581.629,132.656,583.608,134.626,581.528,134.146L581.528,134.146z"/>
</g>
<g>
	<path fill="#FF0000" stroke="#FF0000" d="M518.528,401.166c0.73,0.27,2.58-0.59,2.5,0.5c-55.31,7.649-137.87,2.439-191.01,11.5
		C389.739,399.726,457.778,406.775,518.528,401.166z"/>
	<path fill="#FF0000" stroke="#FF0000" d="M450.028,393.666c-5.5,0.33-13.85-0.82-19-2.5c-1.08,0.41,1.34,4.7-1,5
		c-2.29,0.79-0.93-2.08-2.5-2c-6.86,5.029-18.29,4.859-24.01-1c-4.15-12.4,12.34-22.17,17-11c-0.64,6.689-6.55,8.109-11.5,10.5
		c3.08,6.46,14.23,2.47,18.51,0c-5.93-13.5,5.66-24.71,16-17.5c-0.32,7.85-8.07,8.27-12,12.5
		C435.818,392.636,444.898,390.006,450.028,393.666z M430.528,385.166c3.74-3.09,10.8-2.86,10.5-10c-3.62-1.2-7.35,0.229-9.5,2
		c0.08,1.77,2.41,3.89,1.5,5c-1.03-0.48-1.04-1.971-2.5-2C430.528,381.826,430.528,383.496,430.528,385.166z M408.019,391.166
		c3.54-2.971,9.79-3.221,10.5-9C413.958,374.666,402.139,383.456,408.019,391.166z"/>
	<path fill="#FF0000" stroke="#FF0000" d="M379.519,378.166c3.4,9.189,20.93,6.62,18.5,20c-4.54,1.649-17.11,3.819-18.5-3
		c0.54-1.971,1.96-3.05,4-3.5c-0.28,1.38-1.58,1.75-1.5,3.5c3.55,3.939,9.32,3.149,14,1c-0.71-11.79-17.84-7.16-18.5-19
		c2.28-4.37,14.6-6.59,14,1c-1.64-0.7-2.27-2.4-4-3C384.079,375.046,382.619,376.855,379.519,378.166z"/>
	<path fill="#FF0000" stroke="#FF0000" d="M364.519,350.655c9.35,7.771,8.95,28.45,2,38.511c-19.79,18.729-38.79-12.891-32-33
		c3.09,13.84,1.71,39.59,23.5,36c14.62-4.98,13.3-32.811,4.5-41.511C363.258,350.086,363.778,350.086,364.519,350.655z"/>
</g>
<g>
	<path stroke="#000000" d="M483.499,447.836v1.81c-1.31,0.04-2.64,0.03-3.97,0.021c-3.24-3.71-11.76-1.391-16.5-5.5
		c-0.57,2.41,1.85,5.41-0.5,6.5c-3.86-1.811-1.87-9.46-2.5-14.5c2.8-3.431,10.08-7.88,15.5-4c-0.21,1.04,0.34,1.319,0.5,2
		c-0.47,5.7-6.29,6.05-9.5,9c4.85,2.6,10.07,1.859,14.5,5C481.838,448.046,482.668,447.936,483.499,447.836z M463.028,443.666
		c1.92-5.07,11.01-2.99,10.5-10.5C467.889,430.536,460.849,436.466,463.028,443.666z"/>
	<path stroke="#000000" d="M447.528,445.166c1.77,2.649,4.59,3.06,8,2.5c-1.85,2.93-9.55,1.62-10-1.5c-7.1,0.45-13.68,8.7-21,4
		c0.26-1.57,1.86-1.8,3.5-2c2.03,2.3,9.16-0.41,11-3c-1.44-6.07-13.28-1.73-12.5-10c2.06-1.79,7.4-3.88,9-0.5
		c-1.08,0.87-4.72-0.79-7,2c3.91,3.42,10.78,3.88,14,8c0.85-5.8,3.48-12.92,10-9.5C454.599,440.445,450.269,443.096,447.528,445.166
		z M446.528,442.666c2.89-0.55,5.24-3.37,4-6.5C446.418,435.326,445.168,439.666,446.528,442.666z"/>
	<path stroke="#000000" d="M418.019,432.166c17.32,13.27-14.24,22.08-8.5,1c2.25,4.42,2.19,11.149,8,12
		c3.75-1.181,4.19-8.811,0-10.5C417.369,433.506,417.599,432.746,418.019,432.166z"/>
	<path stroke="#000000" d="M403.519,449.166c-5.78-1.16-10.48,2.54-14,0.5C391.789,447.525,399.708,446.046,403.519,449.166z"/>
	<path stroke="#000000" d="M383.519,450.166c-2.25,0.09-2.93-1.4-3.5-3c-4.84,0.859-12.14,5.739-15,0c2.12-4.891,6.76-7.24,11-10
		c0.12-5.21-5.03-9.62-2.5-14C377.599,431.605,381.449,442.616,383.519,450.166z M379.019,445.166c-0.75-2.24-0.91-5.09-2.5-6.5
		c-2.86,2.97-7.27,4.399-9,8.5C371.958,448.396,375.469,446.275,379.019,445.166z"/>
	<path stroke="#000000" d="M360.019,428.666c3.05,4.79,3.49,14.84,3,21.5C358.929,446.396,360.068,434.815,360.019,428.666z"/>
	<path stroke="#000000" d="M357.019,418.166c2.56-0.07,3.23,2.729,2.5,4.5C357.699,422.146,357.289,420.235,357.019,418.166z"/>
</g>
<path fill="#0000FF" stroke="#0000FF" d="M46.278,262.696c-0.07-0.13-0.15-0.31-0.27-0.54L46.278,262.696z M47.008,264.156
	l0.11,0.22c0.01,0.01,0.01,0.02,0.01,0.03c0.12,0.42,0.25,0.84,0.38,1.25c2.58,2.01,4.6,7.76,6,12.5c-0.55-0.119-0.34-0.989-1-1
	c0.15,2.41,2.35,0.2,2,3.5c-0.55-0.119-0.34-0.989-1-1c1.45,1.62,2.97,4.2,4,7.5c-1.11-0.399-0.65-2.35-2-2.5
	c1.07,2.19,2.98,8.561,4,7.5c0.89,0.37,0.07,0.91,0,1.5c2.19-0.149,2.3,10.15,8,13c-1.35,2.4,4.75,10.73,6,10.5
	c59.53,66.24,156.18,99.721,260.01,121.011c-1.85,3.18-9.79,0.81-12.5,0c-59.02-11.8-118.43-33.44-165.51-57
	c-59.26-29.66-100.02-67.511-115.5-135.51c2.27-44.56,21.79-71.88,59.5-81c-2.09-1.01-10.18,3.26-9-1.5c7.46-2.73,22.35-4.27,31-1
	c-3.86,7.3-12.58,9.75-17.5,16c-1.54-7.88,8.16-8.39,11-13.5c-3.29,1.21-8.78,0.22-10,3.5c-4.56-2.29-13.77,1.69-18,4.5
	c-29.46,2.45-50.84,54-39.89,91.71C47.079,264.306,47.048,264.236,47.008,264.156z M52.278,276.195c-0.07-0.13-0.15-0.31-0.27-0.54
	L52.278,276.195z M51.508,274.655C51.719,271.816,49.608,273.926,51.508,274.655L51.508,274.655z M49.508,270.656
	C50.079,272.636,50.079,268.676,49.508,270.656L49.508,270.656z M48.508,268.656C49.079,270.636,49.079,266.676,48.508,268.656
	L48.508,268.656z M44.508,258.656C45.079,260.636,45.079,256.676,44.508,258.656L44.508,258.656z M43.508,254.156
	c0.14-1.14-0.12-1.88-1-2C42.568,253.086,42.829,253.826,43.508,254.156z"/>
<g>
	<path fill="#FF0000" stroke="#FF0000" d="M181.008,80.646c31.61-2.62,61.69-9.67,88.51-5.5c-26.27,2.32-65.35,1.9-88.51,10
		c-26.96-2.38-62.85,4.39-89.5,8c-0.04-0.79,0.24-1.91-0.5-2c26.07-5.76,57.54-7.05,87.5-10c-2.9-9.25-8.82-19.72-6.5-31
		c3.62,1.22,15.97-1.68,20,3c8.17,9.39-3.94,19.39-13.5,18.5C178.208,75.776,180.588,77.236,181.008,80.646z M177.508,70.146
		c21.53,2.03,15.51-26.71-3.5-16c-0.65,3.73,1.3,5.41,1,9.5c0.59,1.23,1.89-1.02,2.5,0.5
		C175.429,65.226,176.969,68.646,177.508,70.146z"/>
	<path fill="#FF0000" stroke="#FF0000" d="M226.519,63.146c3.72,12.9,21.81,0.73,30,5c-10.37,1.25-29.22,8.86-32.5-4
		c-0.56-11.66,12.49-20.5,20.5-13c0.51,2.34-0.83,2.84-1.5,4c-0.61-1.9-0.7-4.31-2.5-5
		C231.979,50.606,227.229,54.856,226.519,63.146z"/>
	<path fill="#FF0000" stroke="#FF0000" d="M212.508,53.146c1.22,2.98,2.2,14.91-0.5,18.5
		C210.548,67.806,209.869,56.206,212.508,53.146z"/>
	<path fill="#FF0000" stroke="#FF0000" d="M208.508,39.646c-2.03,0.86-4.96-1.69-5-4.5
		C206.958,34.866,206.958,38.036,208.508,39.646z"/>
	<path fill="#FF0000" stroke="#FF0000" d="M138.508,66.146c-0.01-11.5,24.87-19.2,23.5-1
		C159.539,73.306,140.798,77.196,138.508,66.146z M159.508,64.646c1.52-11.51-14.37-9.59-15-3c0.5,2.17,2.57,2.76,3,5
		c-3.11-0.05-3.11-3.22-5.5-4C137.329,73.916,158.208,72.696,159.508,64.646z"/>
	<path fill="#FF0000" stroke="#FF0000" d="M120.508,34.146c4.23,4.46,18.64-6.45,20.5,3c-4.77-3.93-13.85-0.25-19.5,1
		c0.06,12.84,3.5,27.29,1.5,39c-4.39-9.42-1.54-26.16-4.5-39c-9.74,1.11-19.53,6.3-26.5,7
		C98.119,38.096,113.548,40.356,120.508,34.146z"/>
</g>
<g>
	<path stroke="#000000" d="M278.519,174.156c-3.89,1.26-11.64-1.94-16.5-3c-0.84,0.5-0.36,2.31-1.5,2.5
		c-1.77-0.24-1.84-2.17-2.5-3.5c-0.72,0.05-2.61,2.19-2.5,0c4.23-0.44,0.97-8.36,2-12.01c10.58-14.07,23.13,7.38,4,8.51
		C264.749,171.586,272.999,171.496,278.519,174.156z M270.519,160.156c-0.63-11.37-14.48-1.23-9,4.5
		C265.088,162.806,267.508,162.726,270.519,160.156z"/>
	<path stroke="#000000" d="M258.519,117.146c2.08-3.89,18.75-9.23,17.5,0c-1.23-0.77-1.62-2.38-3-3c-5.56-0.05-9.66,1.34-12,4.5
		c0.46,8.87,12.77,5.9,21,7C275.499,127.896,256.258,129.826,258.519,117.146z"/>
	<path stroke="#000000" d="M250.519,110.146c2.88,3.82,3.63,12.33,3.5,17.5C250.298,124.126,250.068,116.426,250.519,110.146z"/>
	<path stroke="#000000" d="M246.019,168.656c1.64,1.94,5.81,3.17,9,2c-4.46,3.92-10.19-0.67-15-1c-5.21-8.28-0.01-19.44,11.5-14.51
		C256.048,161.156,251.979,166.806,246.019,168.656z M242.519,167.156c5.54-0.63,9.57-2.76,9-9.51c-1.96-1.21-4.02-2.31-7.5-2
		C240.048,156.766,239.298,164.456,242.519,167.156z"/>
	<path stroke="#000000" d="M248.519,103.146c3.44,0.56,4.71,3.29,6,6C252.358,107.306,248.858,106.806,248.519,103.146z"/>
	<path stroke="#000000" d="M228.519,112.646c6.32-1.6,16.55-0.06,16,9.5c-1.72,2.85-7.8,3.8-11.5,3c-0.91,6.13,1.71,11.23,1,15.5
		C229.528,133.966,229.289,123.036,228.519,112.646z M242.519,121.146c-1.22-3.62-3.12-6.55-7.5-7c-0.67,2.84-0.12,6.89-1.5,9
		C237.559,123.526,240.298,122.596,242.519,121.146z"/>
	<path stroke="#000000" d="M238.519,174.156c-5.79,2.16-15.67,0.53-19.01-3c0.49-2.18,2.47-2.87,5.01-3c-0.73,0.94-1.12,2.21-3.01,2
		c2.49,2.07,8.55,3.04,12.51,2c-13.25-1.27-10.9-29.09-1.5-12.5c-1.71-1.3-2.65-3.36-4.5-4.51
		C219.258,165.386,237.208,166.136,238.519,174.156z M234.519,172.656C236.588,173.126,234.619,171.156,234.519,172.656
		L234.519,172.656z"/>
	<path stroke="#000000" d="M226.519,168.156c0,0.33,0,0.66,0,1c-0.34,0-0.67,0-1,0c0-0.34,0-0.67,0-1
		C225.849,168.156,226.179,168.156,226.519,168.156z"/>
	<path stroke="#000000" d="M211.008,117.146c12.34-20.18,22.72,19.2,0.5,10c-0.55-3.08-3.22-5.99-1-9c-3.38,0.39-4.34-1.65-8-1
		c0.95,2.56,1.22,5.78,1,9.5c-5.4-1.86-1.41-4.55-3.5-9.5c-3.58-3.57-13,2.44-13.5-2.5c3.24-0.96,9.2-0.61,12.5,0
		c1.33-4.04-1.99-10.26,0-15c2.69,3.32,2.13,9.87,3,15C204.409,116.086,208.168,116.166,211.008,117.146z M212.508,124.146
		c4.84,4.72,13.44,0.68,11.01-8c-2.19-2.98-8.42-4.35-9.51,0.5c0.53,1.81,1.71,2.96,2.5,4.5c-2.11-0.22-2.63-2.03-4-3
		C211.679,119.876,212.918,121.466,212.508,124.146z"/>
	<path stroke="#000000" d="M215.008,153.146c3.12,4.8,4.56,16.84-2.5,19.01c-8.27-0.2-10.25-11-9.5-17.01
		c3.28,3.26,2.39,13.59,9,15.01c6.02-3.16,1.86-10.8,1.5-17.01C214.008,153.146,214.508,153.146,215.008,153.146z"/>
	<path stroke="#000000" d="M177.008,171.656c1.85-4.14,11.44-2.58,17.5-2.5C191.349,170.696,180.619,170.646,177.008,171.656z"/>
	<path stroke="#000000" d="M191.508,127.146c-6.16-0.71-12.52-0.4-19.5-1C176.499,124.536,188.378,124.086,191.508,127.146z"/>
	<path stroke="#000000" d="M163.508,167.156c2.07,0.57,1.95-1.06,3.5-1c-0.36,1.13-1.5,1.49-2.5,2c-0.22,1.71,0.2,2.8,0.5,4
		c-4.19-5.26-17.49,5.2-20.5-3c1.82-6.19,8.68-7.33,14-10c-0.18-5.83-2.43-9.58-3-15.01c5.63,2.88,3.05,13.95,9,16.51
		c-0.12,0.87-0.86,1.13-2,1C162.458,163.866,163.909,164.586,163.508,167.156z M162.008,167.656c-0.64-10.5-12.11-3.84-15,1.5
		C150.139,171.246,158.539,169.726,162.008,167.656z"/>
	<path stroke="#000000" d="M160.008,118.146c0.96,1.87,0.21,5.46,1.5,7c-1.18-0.65-2.12-1.54-3-2.5c-5.98,1.43-17.48,6.1-20.5-1
		c1.08-5.84,9.22-9.66,14-8.5c-3.66,2.84-9.6,3.4-11.5,8c3.57,4.62,11.41,0.94,16.5,0c-1.88-6.63-5.15-14.49-6.5-20
		c5.76,2.75,5.44,11.57,8,17.5C159.229,119.206,159.729,119.186,160.008,118.146z"/>
	<path stroke="#000000" d="M132.508,144.146c2.62,1.89,2.85,6.15,4.5,9C134.168,151.806,130.499,147.146,132.508,144.146z"/>
	<path stroke="#000000" d="M132.508,155.146c1.74,4.77,3.83,13.94,2,19.01c-3.26-4.25-2.06-12.94-3.5-19.01
		C131.508,155.146,132.008,155.146,132.508,155.146z"/>
	<path stroke="#000000" d="M132.008,108.146c3.28,3.21,3.8,16.66,1,21C130.438,124.486,131.989,112.756,132.008,108.146z"/>
	<path stroke="#000000" d="M130.508,100.646c2.38-0.54,2.04,1.63,2,3.5C131.789,103.036,129.969,103.016,130.508,100.646z"/>
</g>
<path stroke="#000000" d="M47.278,264.696l-0.15-0.29c0-0.01,0-0.02-0.01-0.03C47.179,264.506,47.239,264.616,47.278,264.696z"/>
<path stroke="#000000" d="M-1.001,187.656c0.62,0.21,1.03,0.64,1,1.5C-0.611,188.936-1.021,188.516-1.001,187.656z"/>
</svg>
