<?xml version="1.0" encoding="utf-8"?>
<!-- Generator: Adobe Illustrator 15.0.0, SVG Export Plug-In . SVG Version: 6.00 Build 0)  -->
<!DOCTYPE svg PUBLIC "-//W3C//DTD SVG 1.1//EN" "http://www.w3.org/Graphics/SVG/1.1/DTD/svg11.dtd">
<svg version="1.1" id="Layer_1" xmlns="http://www.w3.org/2000/svg" xmlns:xlink="http://www.w3.org/1999/xlink" x="0px" y="0px"
	 width="1044px" height="792px" viewBox="0 0 1044 792" enable-background="new 0 0 1044 792" xml:space="preserve">
<path d="M1114.56,239.01c0.931-1.21,0.341,3.3,0.5,4.5C1114.13,244.73,1114.72,240.22,1114.56,239.01z"/>
<path d="M1114.56,245.01c0.931-1.21,0.341,3.3,0.5,4.5C1114.13,250.73,1114.72,246.22,1114.56,245.01z"/>
<path fill="#FF0000" stroke="#FF0000" stroke-miterlimit="10" d="M1023.05,503.03c2.32,46.239-35.52,50.229-34,97
	c1.63,5.38,0.3,13.63,2,20c1.181,32.279-13.29,53.229-28.5,70.51c-13.96,15.85-30.479,29.11-46,41.5c-4.83,1-7.71,3.96-12.5,5
	c23.33-12,40.82-29.85,58-48c0.851,0.18,0.95-0.39,1-1c12.2-13.97,21.76-30.58,26-52.51c0.521-13.681-0.33-26.101-2-39.5
	c0.57-3.88,0.76-6.59,1-10.5c5.08-28.59,27.58-39.761,33-68c-0.359-3.7,0.561-6.11,0.5-9.5c-0.28-15.21-6.43-24.57-9.5-37
	c-5.3-10.03-5.56-25.11-11-35.011c-8.71-7.449-21.31-11.02-29.5-19c-4.109-6.72-9.229-12.43-15.5-17c-3.149-0.68-6.399-1.27-9.5-2
	c-18.47-0.47-36.05,1.131-52.5-1c-16.67-1.339-27.569-8.43-46-8c-34.85,5.18-67.02,21.44-104.51,15c-17.07,1.7-31.72,8.421-47.5,14
	c-19.04,6.74-40.73,15.69-62,6.5c-15.84,2.341-24.33,12.011-34.01,20.5c8.18-9.819,17.609-18.39,32.01-22
	c8.04-0.05,12.94,3.061,20,4c36.36-0.75,57.34-20.899,92.5-24.5c8.83,0.521,15.82,1.721,25.5,1.5c26.24-2.93,48.229-10.1,71.51-16
	c3.54,0.21,6.48-0.18,9.5-0.5c14.32,0.18,24.83,4.17,36,7.5c21.811,2.91,42.32,1.02,64,2c0.931,0.74,2.38,0.961,4,1
	c0.431,0.74,1.26,1.08,2.5,1c7.61,5.061,12.36,12.98,18.5,19.5c7.03,6.15,16.641,9.7,25,14.5c0.22,1.12,0.891,1.79,2,2
	c4.62,11,5.72,22.57,9.5,34.011C1016.73,479.68,1020.24,491.01,1023.05,503.03z"/>
<path fill="#FF0000" stroke="#FF0000" stroke-miterlimit="10" d="M961.05,437.52c7.46,3.381,21.21,0.471,28,4.5
	c-7.84-0.149-19.74-0.579-28.5-1.5c-2.479,6.19-1.95,15.391-5.5,20.511c-2.35-0.82-2.25-4.08-3-6.511
	c-2.21-6.119-6.85-9.81-9.5-15.5c4.07-2.369,9.181-0.729,15-1c1.04-2.689,1.641-5.17,1.5-10c0.33,0,0.67,0,1,0
	C963.26,429.26,960.57,434.39,961.05,437.52z M955.05,456.03c0.25-5.761,1.98-10.021,2.5-15.511c-3.439-0.89-8.3-0.359-12.5-0.5
	C949.39,444.36,951.66,450.75,955.05,456.03z"/>
<path d="M967.55,547.03c-0.49,3.76-0.46,6.46-0.5,9.5c-2.55,5.95-6.54,10.46-10,15.5c-21.08,19.09-49.43,30.91-85.5,35
	c-44.42,2.2-98.26,3.649-139.51,3c-2.45-0.21-4.66-0.67-7-1c-8.98,0.26-20.34-0.09-28-1.5c-4,0.79-8.6-1.58-13.5-1.5
	c-3.28-1.88-9.98-0.351-11.5-4c12.81,1.859,25.17,4.16,39,5c57.47,1.51,93.83,0.72,156.51-2c39.431-3.4,69.53-16.13,90.5-38
	c2.25-4.41,5.181-8.16,7-13c-1.14-23.03-13.75-34.59-30.5-42c-49.729-10.04-110.53-9.94-163.01-7c-27.09,1.3-52.89,3.3-81,7
	c-26.3,4.479-53.43,7.38-70.51,19c2.09-6.58,10.12-7.221,16.01-10c6.479-2.181,13.61-3.721,21-5c14.05-3.12,28.4-5.931,44.5-7
	c30.77-4.37,62.15-6,95.5-7c0.81,0.14,0.86-0.48,1.5-0.5c47.76,0.13,97.21-1.2,140.51,10c7.48,3.689,13.271,9.06,19,14.5
	C962.08,532.16,965.07,539.35,967.55,547.03z"/>
<path fill="#FF0000" stroke="#FF0000" stroke-miterlimit="10" d="M941.05,462.03c2.63,0.63,2.97-1.04,5-1c-0.96,1.7-2.41,2.92-5,3
	c-4.42-2.49-3.41-9.87-3-16.011c-6.479,5.181-8.92,12.2-16,16.011c-2.87-0.471-2.66-4.021-3-7c-3.87,1.46-7.27,3.39-13,3
	c-3.42-1.92-6.95-3.721-10-6.011c0.53-1.439,1.51-1.649,3-1c-0.13-6.63,3.32-9.67,10.5-9c2.8,5.381-2.5,9.311-6,11.511
	c2.21,3.729,8.141,2.34,13,1.5c4.48-1.36,2.3-9.37,6.5-11.011c1.73,5.521-2.88,9.091-1,15.011c8.09-2.75,10.65-13.69,17-16.511
	C942.09,447.53,938.45,457.46,941.05,462.03z M901.55,452.02c2.48,1.91,7.53-1.619,7-6c-3.609-0.609-5.069,0.931-6.5,2.5
	C902.68,451.22,902.96,450.18,901.55,452.02z"/>
<path d="M900.05,561.03c5.87,5.08,12.021,0.739,20.5,2.5c-6.27,1.069-16.59,4.68-22.5-1c-1.84-7.511,5.73-12.15,12.5-11
	C908.5,556.84,899.69,552.89,900.05,561.03z"/>
<path d="M895.05,637.53c0.141,5.02,1.37,9.76,1,16.51c-3.83,19.5-11.13,35.54-25,45c-6.24,2.93-13.39,4.94-19.5,8
	c-31.74,8.33-69.24,3.27-103.51-2c-10.08-3.75-18.9-8.771-25-16.5c-2.45-4.22-4.29-9.04-5-15c0.07-5.2,1.61-9.88,3-15
	c8.25-12.08,21.36-19.31,34-27.01c17.43-5.73,39.18-7.15,59-10.5c4.17,0,8.34,0,12.5,0C851.88,624.03,879.55,624.7,895.05,637.53z
	 M879.55,688.04c8.34-11.11,16.98-28.97,12.5-48.01c-15.85-14.681-49.01-15.66-76.51-17c-0.3,0.029-0.59,0.08-0.5,0.5
	c-37.3,3.029-71.66,9.01-89,32.01c-3.71,6.24-5.62,12.24-5,22c1.06,2.58,2.02,3.82,2,6.5c4.25,6.58,10.31,11.35,17,15.5
	c22.27,7.63,47.26,8.28,74.5,10c19.81-0.69,36.78-4.23,51.01-10.5C870.98,696.13,875.61,692.44,879.55,688.04z"/>
<path fill="#FF0000" stroke="#FF0000" stroke-miterlimit="10" d="M894.05,458.03c-4.49,2.029-5.43-3.04-5.5-7.011
	c-3.84,1.87-6.93,8-12.5,5.011c-0.45-2.7-0.93-5.811-0.5-8.011c-4.38,3.15-4.05,9.66-9,13.011c-4.24-4.05-1.479-11.84-1.5-18.511
	c0.33,0,0.66,0,1,0c2.28,2.881,0.36,9.971,1,14.511c4.26-3.41,4.391-10.94,10.5-12.511c1.11,2.811-0.88,6.83,0.5,10
	c6.71-0.289,7.641-6.35,12.5-8.5C891.46,450.28,890.45,456.46,894.05,458.03z"/>
<path d="M889.55,542.03c-2-0.5-2.189-2.82-3-4.5C889.12,537.46,888.96,540.12,889.55,542.03z"/>
<path d="M890.05,552.03c-1.43,3.569-2.5,7.5-3,12C883.81,562.3,885.76,552.43,890.05,552.03z"/>
<path d="M881.05,655.04c4.24,9.56-2.62,16.61-11,18c2.061,4.77,8.87,4.79,14.5,6c-7.149,2.51-15.05-1.19-18-6
	c-4,0.08-8.51-1.72-7-5.5c2.07,0.59,2.03,3.3,5,3C863.78,660.92,870.45,651.7,881.05,655.04z M868.05,670.54
	c7.98-0.36,12.46-4.21,13-12C874.39,651.2,863.93,662.4,868.05,670.54z"/>
<path fill="#FF0000" stroke="#FF0000" stroke-miterlimit="10" d="M846.55,752.54c20.37-4.62,39.07-9.84,57-15.5
	c-21.21,9.13-45.45,15.22-73.01,18C833.81,753.13,842.97,751.22,846.55,752.54z"/>
<path d="M879.05,559.03c-1.149,3.91-8.79,5.33-12.5,3.5c-2.18,4.41,1.57,9.67,0.5,13c-5.06-4.75-3.91-16.431-3-24.5
	C872.26,550.48,878.52,551.89,879.05,559.03z M866.05,560.53c3.59,1.13,9.3,1.279,11-2C876.8,552.18,863.06,549.82,866.05,560.53z"
	/>
<path d="M859.05,650.54c2.681,2.84,8.16,0.06,8,6c-1.359-2.15-4.54-2.47-7.5-3c-1.55,8.12,0.25,19.59-3.5,25.5
	c-2.939-4.57,1.55-18.08,0.5-25.5c-3.439,0.17-9.49,1.55-12-0.5c-1.84,0.49,2.3,3.04-0.5,3c-0.2-1.31-1.609-1.4-1-3.5
	c3.58-1.42,8.78-1.22,13.5-1.5c-0.2-4.87,0.15-9.18,0.5-13.51c0.5,0,1,0,1.5,0C858.88,640.31,859.55,647.17,859.05,650.54z"/>
<path d="M860.05,553.03c2.53,13.649-17.96,10.77-13-4C851.33,544.86,858.04,549.09,860.05,553.03z M857.05,557.03
	c3.12-3.03-1.81-9.16-7-7.5c0.41,1.41-0.71,1.3-0.5,2.5c0.83,1.5,2.28,2.38,3.5,3.5c-1.77-0.07-2.24-1.431-4-1.5
	C847.22,560.71,857.46,561.58,857.05,557.03z"/>
<path fill="#FF0000" stroke="#FF0000" stroke-miterlimit="10" d="M859.05,458.53c-4.89,2.609-3.609-4.99-4.5-8.011
	c-3.149,0.86-6.39,5.95-11.5,6.511c-1.76-0.58-3.18-1.5-3-4.011c-3.74,3.101-4.63,9.051-10.51,10.011
	c-1.32-4.54-0.23-8.41-0.5-14.011c-7.18,2.82-7.48,16.851-20,16.011c-1.85-1.15-2.57-3.431-3-6c-6.48,2.479-17.45,6.95-23,0.5
	c-5.18-16.3,5.11-31.891,20-34.511c4.16,2.79,3.85,7.681,3,13.5c-3.38-1.88,0.84-8.72-2.5-11c-7.99-0.6-11.91,6.601-16.5,11
	c0.67,5.16-7.41,13.671-1,18.511c-0.58,0.08-0.89-0.11-1-0.5c-0.6,1.609,2.82,3.5,4.5,4.5c7.44,0.27,12.28-2.061,17-4.5
	c2.4-5.28,5.479-9.86,13-10.011c1.5,1.341,3.58,2.101,3.5,5c3.58-1.59,4.87-5.46,8-7.5c2.47,2.78-0.96,9.141,0,15.011
	c5.49-1.69,6.12-8.23,10.51-11.011c3.01,0.471,0.09,3.761,1.5,6.5c6.3-1.52,9.44-6.22,14-9.5
	C859.4,448.03,854.73,455.86,859.05,458.53z M821.04,454.02c0.09-2.079,0.18-4.17-1-5c-4.36-0.72-9.61,3.391-10,6.511
	c0.11-0.4,0.42-0.59,1-0.511c0.09,1.421-1.69,0.98-1,3.011C815.71,458.69,817.65,455.63,821.04,454.02z M809.04,462.03
	c4.66,1.319,11.16-2.061,10.5-6c-2.46,2.569-7.56,4.189-11,3C808.53,460.2,809.41,460.5,809.04,462.03z"/>
<path d="M856.55,533.53c-6.069,0.06-13.569-2.761-22.01-2c-0.94,7.92-0.72,22.819-2.5,30c-3.11-7.721,0.32-19.96,1-30
	c-2.32,0.229-3.33,0.68-5.5,0c-3.72-0.19-10.43,2.05-12.5,0c-0.92-2.13,3.18-1.771,3-1.5C829.33,529.15,847.95,528.49,856.55,533.53
	z"/>
<path d="M836.04,676.54c1.55,2.45,6.76,1.61,9.01,2c-1.85,0.82-3.53,1.8-6.51,1.5c-1.72-0.44-3.46-0.87-4.5-2
	c-1.72,0.6-3.31,1.35-6,1c-8.32-7.43-10.99-24.99-10-38.51c2.61,8.989,3.96,21.029,6,29.01c1.97,2.85,3.35,8.44,8,7
	c-3.17-4.83-6.3-15.13,1-17.5C840.58,661.08,837.9,670.3,836.04,676.54z M834.04,674.54c3.2-3.03,3.55-12.22-1.5-13.5
	C828.99,664.69,831.26,671.64,834.04,674.54z"/>
<path fill="#FF0000" stroke="#FF0000" stroke-miterlimit="10" d="M739.04,735.54c-4.69-2.9-15.22-8.39-21-13.5
	c-23.84-8.16-45.33-6.73-71.5-8c-9.05-1.96-18.59-3.41-24.01-9c-9.67-12.07-10.271-34.09-9.5-54c-0.74-3.59-2.04-6.63-2.5-10.51
	c-8.271-14.721-29.55-16.44-38.5-30.5c-4.99-16.91-10.521-37.59-9.5-56c0.048,0,0.097,0.001,0.145,0.001
	c-0.04-0.843,0.101-1.694,0.428-2.461c-0.023-0.015-0.051-0.025-0.072-0.04c0.399-18.69,9.34-38.3,1.5-53.5
	c0.42-1.25,0.66-2.681,0.5-4.5c6.279-13.73,25.279-17.4,27.5-33.5c-6.29,14.87-23.021,19.3-29.5,34c0.22,1.72-0.2,2.8-0.5,4
	c7.87,16.95-0.891,33.89-1.5,53.5c-0.068-0.006-0.133-0.01-0.197-0.015c0.137,0.789,0.108,1.61-0.087,2.385
	c0.095,0.042,0.189,0.08,0.284,0.13c-2.66,15.67,3.89,28.68,5,44c1.979,3.689,3.33,8.01,4,13c10.3,15.189,32.71,15.239,40,33.5
	c1.76,20.52,0.04,45.819,10,60.51c13.38,13.91,46.979,10.229,69.51,12c19.46,2.88,35.62,9.05,47.5,19.5
	c14.12,8.22,31.52,13.15,50.5,16.5c6.3,0.37,12.09,1.24,18,2c5.02-0.13,9.71,0.49,14,0.5c3.29,0.01,8.62,0.4,10.5-1.5
	C796.08,754.54,762.48,749.45,739.04,735.54z"/>
<path d="M814.54,676.04c1.94,2.2-5.73,3.19-7.5,5c-6.67-0.16-8.73-4.94-14-6.5c-0.18-2.12,2.17-0.44,3-0.5
	c0.97-5.71,2.77-10.57,10-10c3.43,4.16-0.49,11.08-6,11C801.84,680.58,811.09,679.28,814.54,676.04z M805.54,666.04
	c-4.16-1.42-6.13,3.02-6.5,7C803.12,672.61,805.52,670.52,805.54,666.04z"/>
<path d="M804.04,546.53c0.78,7.67-7.41,7.439-12,11c0,0.5,0,1,0,1.5c2.53,4.39,12.229,2.52,16.5,2.5c-4.24,2.569-18.3,3.8-19.5-3.5
	c-1.98-0.181-4.79,0.46-6-0.5c0-0.5,0-1,0-1.5c2.3,0.22,3.47,0.399,5.5-0.5C789.91,549.29,797.37,542.64,804.04,546.53z
	 M792.04,554.53c4.33-1.34,9.15-2.181,10-7C796.38,547.54,792.68,549.5,792.04,554.53z"/>
<path d="M790.04,546.03c-1.78-1.55-4.7-1.971-7.5-2.5c-1.73,5.069,0.54,13.12,0,17c-4-2.2-2.94-12.011-2.5-17
	c-3.08-1.66-5.97,1.31-8.5,0c0.44-2.891,4.38-2.29,7.5-2.5c2.51-3.99-0.21-13.21,1.5-18c3.4,3.17,0.8,10.8,1.5,18
	C784.73,542.68,789.45,542.29,790.04,546.03z"/>
<path d="M785.04,669.04c-0.63,3.54,2.05,9.61,2.5,12c-2.9-0.271-3.23-3.11-4-5.5c-3.56,6.11-19.98,9.79-24.5,2
	c1.51-9.83,10.01-12.66,18.5-15.5c1.94-0.44,1.78,1.22,3,1.5c-0.42-7.25-4.72-14.95-4.5-24.51c1.94,0.229,2.229,2.109,2,4.5
	c2.24,5.1,2.8,11.87,5,17.01c-0.521,3.85,1.06,5.61,1,9C784.22,670.24,784.92,669.58,785.04,669.04z M761.54,677.04
	c7.55,6.45,27.21,0.02,19-11c-0.05,0.61-0.15,1.18-1,1c-0.59-1.24-0.85-2.82-2.5-3c-5.97,3.02-13.16,4.84-15,12
	c0.89,0.11,2.51-0.51,2,1C763.74,676.75,761.67,675.87,761.54,677.04z"/>
<path d="M763.04,561.03c1.34,1.779,3.49,1.43,6,1c-1.01,3.56-6.06,1.18-8.5,0.5c-3.22,1.189-7.93,1.47-10.5-0.5
	c-5.13-9.33-6.62-22.55-3-35c2.19,5.97-4.62,35.96,11,34c-3.01-5.84-0.74-14.49,6-15C771.36,548.25,767.44,559.08,763.04,561.03z
	 M760.04,559.53c4.21-1.29,6.39-4.61,6.5-10C761.6,544.66,756.7,554.62,760.04,559.53z"/>
<path d="M746.04,558.53c-1.12,2.22-5.28,1.38-6.5,3.5c-9.8,1.3-14.45-2.55-16.5-9c1.62-0.62,0.38,1.62,2,1
	c0.5-6.431,16.32-9.96,14,1.5c-2.85,1.189-6.23,3.819-10,2.5C732.5,562.74,741.1,559.56,746.04,558.53z M737.04,553.03
	c0-0.5,0-1,0-1.5c-2.48-4.011-10.49-1.061-9.5,4.5C731.06,556.58,736.06,556.44,737.04,553.03z"/>
<path fill="#FF0000" stroke="#FF0000" stroke-miterlimit="10" d="M728.04,190.51c-3.5-2.5-7.46-4.54-10.5-7.5
	c-10.67-2.73-19.65-5.8-29-8.5c-9.26-4.41-18.01-9.33-24.5-16.5c-6.43-7.41-12.74-14.94-20.5-21c-7.46-3.89-15.63-7.04-24.51-9.5
	c-3.88,0.67-9.63-0.55-13.5-1.5c-6.561,0.49-13.83-0.45-22.5,0c-14.4-0.92-36.62-0.91-50-6c-14.17-5.17-27.15-11.53-38-20
	c-5.08-0.26-7.92-2.75-12-4c-3.7-0.46-10.09-1.24-14.5-2.5c-11.21,1.07-22.03-0.01-33.51,0.5c-24.69-1.04-47.15-3.71-68.5-9
	c-21.08-2.98-40.82,2.89-60.5,4.5c-4.73-0.18-6.87-0.32-11.5,0c-8.71-0.63-15.52-3.15-23.5-4.5c-12.65-5.52-23.05-13.29-38.51-16.01
	c-23.55-1.28-38.62,6.03-60.5,4.51c-19.42-2.59-30.19-13.82-43.5-22.51c-2.28,0.45-2.84-0.83-4.5-1c-15.81-0.24-26.59,2.5-39.5,6
	C71.86,59.44,59.98,62.51,52,68c-0.81,2.36-3.75,2.58-3,6.51c1.42-0.76,3.23-5.44,6.01-6.51c20.14-8.52,44.61-16.91,71-16
	c-0.51,1.51,1.11,0.89,2,1c16.84,11.57,31.4,25.8,61,22.01c16.74-2.41,36.39-7.48,54-2c14.32,8.02,28.99,15.68,49.01,18h19
	c11.51-1.66,22.52-3.81,34.5-5h12.5c18.33,2.81,37.21,6.97,57,8.5c20.85,1.6,37.99,1.12,56.51,1.5c3.9,0.76,7.74,1.59,12,2
	c22.83,9.66,39.65,25.35,69.5,28c27.37,2.88,59.22-1.13,83.01,9c3.95,3.04,8.26,5.73,12.5,8.5c6.58,7.42,13.02,14.97,20,22
	c4.21,2.12,8.1,4.56,11.5,7.5c15.12,7.38,36.85,8.15,47,20.5c5.59,10.75,9.6,23.07,9,40c-1.021,4.15-1.99,8.35-3,12.5
	c-7.42,14.75-19.85,24.49-28.5,38.01c-9.86,12.47-17.42,27.25-25,42c-15.37,29.3-32.36,56.98-65.01,69c-9.641,3.13-20.8,6.49-31.5,7
	c-36.78-4.609-75.46-10.189-112.5-13c-10.67,0.28-16.92-1.33-27.01-1c-12.19,1.53-24.94,1.41-34.5,4.5
	c-0.004-0.071-0.005-0.144-0.008-0.216c-0.643,0.346-1.41,0.555-2.306,0.567c-0.054,0.058-0.113,0.11-0.186,0.149
	c-19.47,4.83-40.24,15.6-59.87,17.98c0.37-0.11,0.17-0.61-0.63-0.48c-33.45,4.04-40.69-26.589-67.5-32.5
	c-17.52-2.18-34.5,3.37-52.51,5c-19.29-2.7-37.51-6.49-54.5-11.5c-17.43-4.57-32.65-11.35-41-25c-1.81-3.53-3.9-6.76-6-10
	c-1.57-5.26-3.55-10.12-5.5-15c-12.34-8.16-33.63-7.37-44-17.5c-10.26-15.56,4.85-41.57,3.5-62.51c-0.43-6.55-2.39-11.65-5.5-17.5
	c-8.52-8.32-21.79-11.88-26.01-24.5c-0.79-15.13,3.8-24.87,3.5-39.5c-0.86-9.36-3.5-16.32-3.5-25c-2.02-4.95-5.99-9.73-7-15.5
	c-2.9-16.65,5.77-33.16,12-43.5c-10.67,11.37-16.56,26.07-13,47.5c3.48,4.53,5.38,10.62,7,17v5.5c6.64,17.7-1.29,33.67-1,52.5
	c3.37,13.81,16.48,17.86,26.01,25.5c15.94,22.26-6.71,49.94,0.5,78.01c8.42,14.08,33.09,11.9,46.5,21c1.52,5.64,3.75,10.58,5.5,16
	c9.11,16.12,19.58,25.85,39.5,31.5c18.13,5.14,37.05,11.11,57.5,13.5c17.35,0.88,33.61-4.26,49.51-5c9.41,1.09,16.21,3.1,23.5,7
	c11.52,9.98,21.39,21.61,38.5,26c4.4-0.989,6.04,0.44,10.5-0.5c-0.01,0.83-1.39,0.28-1.5,1c23.43-1.52,42.36-11.55,63-17.5
	c1.312-0.104,2.292-0.284,3.115-0.264c0.457-0.19,0.983-0.294,1.549-0.339c0.377-0.227,0.804-0.399,1.275-0.513
	c0.549-0.434,1.396-0.568,2.061-0.884c22.13-3.54,42-3.63,63.01-2c38.59,3.31,71.8,8.55,109,12.5c4.75-0.22,10.13-2.01,14-1.5
	c37.89-9.12,61.239-32.77,77.01-64c15.55-31.61,33.88-60.45,57-84.51C742.4,235.97,737.53,205.22,728.04,190.51z"/>
<path d="M721.04,546.03c0.91,13.239-11.74,12.93-23,14c-1.11,0.39,0.09,3.1-2,2.5c-2.34-9.021,1.99-26.891-2-34.5
	C704.91,530.29,715.93,536.38,721.04,546.03z M698.04,558.03c9.43-1.32,18.83,0.3,21-9.5c-3.04-9.96-12.22-13.79-21.5-17.5
	C696.76,538.56,697.65,549.53,698.04,558.03z"/>
<path d="M670.04,548.53c4.74,2.59,4.15,10.52,8,14c-5.79-0.38-5.59-6.75-7.5-11c-3.86,3.149-3.93,10.08-7.5,13.5
	c-3.34-1.33-1.56-7.78-2-12c-1.62-0.62-0.39,1.62-2,1c0.29-1.87,0.6-3.73,2.5-4c2.11,1.88,1.41,6.59,1.5,10.5
	C666.23,557.39,666.6,551.43,670.04,548.53z"/>
<path d="M671.54,602.03c-2.36,1.1-9.6-0.891-12-3C663.87,599.7,668.43,600.14,671.54,602.03z"/>
<path d="M607.912,553.07c0.436,0.335,0.975,0.498,1.509,0.733c0.053,0.023,0.102,0.052,0.153,0.076
	c0.152-0.048,0.299-0.062,0.436-0.032c-0.044-0.722-0.052-1.48,0.021-2.317c1.989-8.681,10.1-14.21,19-17.5
	C616.85,535.498,610.105,542.697,607.912,553.07z"/>
<path d="M633.04,588.03c-8.62-7.721-15.88-16.79-22.01-27c-0.083-1.52-0.368-2.84-0.623-4.193c-0.285,0.143-0.564,0.296-0.842,0.453
	c-0.178,0.335-0.447,0.617-0.811,0.824c-0.053,0.03-0.106,0.045-0.159,0.064c7.229,17.54,19.644,29.885,36.444,37.852
	c5.71-0.67,10.13,5.14,14,3C650.13,595.6,641.03,592.37,633.04,588.03z"/>
<path d="M647.04,255.01c-11.21-37.91-69.98-26.86-114.51-27c-4.15,1.99-13.04-1.18-16,3c26.701-3.28,47.97-1.56,76.5-3
	c-0.5,1.51,1.12,0.89,2,1c22.22-1.04,36.47,5.87,46.01,17.5c4.26,6.74,4.27,17.73,4,29.01c-2.1,7.23-4.59,14.07-8.5,19.5
	c-17.76,21.16-49.98,27.92-82.51,33c-48.716,4.146-100.183,7.336-151.873,6.521c-0.254,0.814-0.372,1.646-0.456,2.486
	c21.752,0.23,46.221-0.374,63.828-2.006c57.98-2.15,127.92-2.07,166.01-31.5C643.21,293.68,650.28,276.82,647.04,255.01z"/>
<path d="M396.867,335.057c-31.691,0.707-53.142-0.865-83.347-3.037c-33.27-5.77-71.5-8.13-90.51-29.5c0.14-1.97-2.13-1.53-2-3.5
	c-0.54-2.25-2.03-10.57-0.5-10c1.13,1.7-0.37,6.03,1.5,7c-0.97-10.89-1.88-20.69,3.5-29c1.52-1.47-1.02-1.1-0.5-3
	c1.41-3.27,3.84-5.5,6-8.01c-3.66-0.32-3.59,3.08-6,4c-3.73,7.1-5.41,16.26-7,25.51v5c2.65,21.38,21.88,25.82,38.01,32.5
	c7.07,2.19,16.45,2.43,24.5,6c8,0.16,13.53,1.26,20.5,3c4.89-0.35,9.76,0.82,14,2c25.547,1.735,54.693,3.981,81.861,3.052
	C396.863,336.401,396.863,335.73,396.867,335.057z"/>
<path d="M642.04,546.53c5.79-0.24,11.3,5.479,12,10.5c-0.56,8.56-13.44,13.75-19,7c-0.88-6.761,0.26-13.03,3.5-17
	C640.11,547.27,640.3,546.13,642.04,546.53z M651.04,560.53c4.09-12.811-17.1-15.971-12-3.5c-1.6,0.3-1.55-0.94-2.5,0
	C633.91,567.75,647.49,565.7,651.04,560.53z"/>
<path d="M629.03,557.03c1.17-0.15,2.069-0.98,3.01,0c-1.16,6.84-5.75,10.26-6.01,18c-6.971-0.36-4.73-9.94-10-12
	c0.41-2.261-0.96-6.3,1-7c2.46,0.71,2.149,4.189,4.5,5c3.069-5.931-0.33-18.33,3-24c2.439,0.97,0.16,2.77,2.5,2.5
	c-1.42,3.399-0.891,9.14-1,15C626.76,555.29,629.75,553.75,629.03,557.03z"/>
<path fill="#00CC00" d="M590.53,247.51c5.319,5.02,10.35,12.99,11,21.01c-4.87-1-6.59-9.39-11-12.51
	c-1.16,5.34-0.17,12.84-0.5,19.01c-1.83,4.33,1.46,13.79-2,16.5c-1.641-10.84-3.3-22.83-3-35.01c-2.141,3.03-4.05,6.29-5,10.51
	c-2.65-0.66-2.55,1.44-5,1c-0.34-8.7,4.59-16.4,9.5-21.51c1.97-0.3,2.22,1.12,2.5,2.5C588.19,248.5,588.64,247.29,590.53,247.51z
	 M589.03,250.51c1.25,2.75,3.51,4.5,5.5,6.5C593.44,254.36,591.38,250.29,589.03,250.51z M579.53,261.01c1.279-3.23,4.16-7.5,4-10.5
	C581.96,253.44,578.98,257.62,579.53,261.01z"/>
<path fill="#FF0000" stroke="#FF0000" stroke-miterlimit="10" d="M599.53,446.02c-1.78,2.051-2.83,4.83-5.5,6
	c-1.45,2.051-1.721,5.29-4.5,6.011C592.22,453.38,595.35,449.17,599.53,446.02z"/>
<path fill="#FF0000" stroke="#FF0000" stroke-miterlimit="10" d="M590.03,458.53c-0.73,2.77-2.21,4.779-3.5,7
	C586.33,463.81,587.46,459.13,590.03,458.53z"/>
<path fill="#00CC00" d="M560.03,280.02c0,1,0,2,0,3c-5.431-3.04-9.29,2.18-11,6c1.89,5.67,10.47,4.42,16.5,3.5
	c-3.851,3.35-8.19,2.32-14.5,2.5c-1.58-0.92-2.681-2.32-4-3.5C546.81,283.28,552.83,279.24,560.03,280.02z"/>
<path fill="#00CC00" stroke="#00CC00" stroke-miterlimit="10" d="M540.03,266.02c1.95,1.54,2.399,4.6,3,7.5
	C541.15,271.95,539.53,268.39,540.03,266.02z"/>
<path fill="#00CC00" d="M540.03,283.02c-0.3,1.87,1.01,9.66-1,11.5C536.89,292.11,537.86,284.42,540.03,283.02z"/>
<path fill="#00CC00" d="M533.03,287.52c1.14,7.95-8.93,10.24-13.5,6.5c0.06-1.94,1.47-2.53,2.5-3.5c1.74,1.02-1.45,2.61,0,3.5
	c4.69,0.36,7.46-1.21,9-4c-0.03-6.5-6.93-6.97-13-6c0.27,8.7,2.64,17.54,3.5,25c-3.6,0.93-1.96-3.38-3.5-4.5
	c-0.69-8.48-3.03-15.31-3-24.5c2.02-0.69,1.77,0.89,2.5,1.5C524.69,279.99,531.4,281.98,533.03,287.52z"/>
<path fill="#00CC00" d="M509.03,286.52c0,2,0,4,0,6c-5.52,5.38-20.29,4.5-21-4.5c0.33,0,0.66,0,1,0c1.73,5.74,13.8,8.45,18,3
	c1.36-8.14-10.89-10.13-15.5-6c0.01,2.15,0.48,3.84,2,4.5c-1.87,1.17-4.12-1.54-3.5-4.5C492.86,277.28,506.61,281.86,509.03,286.52z
	"/>
<path d="M516.03,230.01c-16.16,3.71-32.65,3.65-50.5,4c2.47-1.59,8.82-1.74,12-1C489.84,231.49,502.88,230.7,516.03,230.01z"/>
<path fill="#00CC00" d="M494.53,270.02c-4.28-1.56-6.94-4.74-13.5-4c-0.32,9.68,1.27,20.35-0.5,30c-3.62,0.7-2.98-8.31-1.5-8
	c-0.32-7.19,0.64-15.65-0.5-22c-5.58-0.7-11.75,1.33-16.5,2C468.57,261,490.12,261.45,494.53,270.02z"/>
<path fill="#00CC00" stroke="#00CC00" stroke-miterlimit="10" d="M479.53,466.53c-0.55-18.96-11.54-27.471-20-38.511
	c-4.61-1.22-8.38-3.279-12.5-5c-4.044,0.177-7.01-0.725-11.056-0.548c-0.512,0.177-1.085,0.278-1.724,0.278
	c-0.183,0-0.358-0.011-0.53-0.026c-0.106,0.112-0.188,0.219-0.2,0.296c-22.73,1.601-39.27,9.4-42.5,30.5
	c-0.08,2.591,0.31,5.65-0.5,7.511c2.21,25.66,17.3,40.87,37.5,50c2.71-0.261,8.29,0.17,12.5,0
	c8.929-1.661,17.194-6.271,23.646-9.358c0.496-1.072,1.361-1.957,2.594-2.388c2.363-2.47,4.316-5.366,7.269-7.254
	c0.62-4.181,1.81-4.021,1.5-6.5c1.3-2.971,1.98-3.721,3.5-6C479.42,473.52,479.1,471.57,479.53,466.53z M477.03,479.03
	c-2.93,10.43-11.69,19.29-21,25c-8.98,2.899-18.96,7.109-31.01,4c-11.58-6.08-19.29-16.04-27-26c-7.12-16.141-6.69-39.98,6.5-49.011
	c9.39-6.01,22.64-7.739,35-8.5c5.03,0.48,9.05,1.961,13.51,3c0.27,1.11-0.96,0.721-1,1.5c11.72,5.62,18.22,16.44,24,28.011
	C476.84,464.63,477.23,470.05,477.03,479.03z"/>
<path d="M453.03,234.51c2.47-2.39,6.89-1.06,12-1.5C463.45,235.61,455.6,234.58,453.03,234.51z"/>
<path d="M449.53,233.51c0.77,0.95,1.94-0.71,3,0.5c-30.53,3.97-62.28,6.01-94.51,9c-1.68,0.99-5.3,0.04-6,2
	c-5.2-1.73-13.23,1.56-20.5,1c-11.38,2.21-19.21,1.69-30.5,4c-23.2,1.46-46.65,4.76-64.51,9c0.67-3.16,5.02-2.64,8-3.5
	c2.55-1.12,6.13-1.2,8.51-2.5c49.73-5.67,98.04-10.76,147.5-16C419.61,235.87,432.39,235.13,449.53,233.51z"/>
<path fill="#00CC00" d="M450.03,296.02c-0.25,1.57,1.53,1.13,1,3c-1.88,1-4.57,2.57-7.01,1.5
	C444.04,297.03,446.14,295.63,450.03,296.02z"/>
<path d="M455.03,209.01c-5.11,7.06-8.28,16.06-16.01,20.5c-3.14-2.19-4.6-6.06-8-8c0.4-6.79-3.63-10.46-1-15
	c4.74,1.94,3.99,9.35,6.5,13.5c5.13-3.77,3.26-14.19,3.5-20.5c-0.85-4.47-4.11-6.55-7-9c-6.64-1.53-15.61-2.23-21.5-0.5
	c0.08,0.58-0.11,0.89-0.5,1c-1.56,1.6-1.63,4.7-2.5,7c-16.14,19.36-44.37,26.63-71.5,35c-5.26,0.41-10.3,1.04-15,2
	c-1.83,0-3.67,0-5.5,0c-1.8-0.13-2.41,0.93-4,1c-6.93,0.73-14.29-1.37-17.5,0c-4.2-1.22-8.12-1.42-12-1
	c-21.42-4.7-35.9-18.13-52.51-29c-3.95-4.14-8-9.95-6.5-18c-0.08-1.58,1.33-1.67,1-3.5c0.45-0.31,0.9-0.6,1,0
	c0.86-5.32,9.13-11.42,13.5-16.5c7.51-3.79,15.06-6.17,23.51-8c39.88-2.04,87.92-10.27,125.5,2.5c2.54,0.86,5.22,1.77,7.5,3
	c4.62,2.49,7.81,4.48,11.5,7.5c0.12,1.55,1.39,1.94,2,3c0.5,3.84,2.04,6.63,1.5,11.5c6.76-1.38,15.89-0.29,21.5,0.5
	c7.48,2.86,11.3,9.37,10.5,20.5c0.78,7.45-5.74,12.36-4,17.5C446.86,222.85,447.05,212.04,455.03,209.01z M408.52,187.01
	c0.26-4.92-1-8.33-2-12c-16.33-14.84-44.56-17.77-76.5-17c-0.21-0.85-0.65,0.1-1.5,0c-12.22-0.55-22.38,0.95-34,1
	c-12.2,2.53-26.86,0.66-36,5c-2.15-1.49-2.61-0.28-5.5,0.5c-3.41,0.92-3.72,1.52-6.5,3c-0.49,0.26-0.81-0.85-1.5-0.5
	c-4.42,2.21-4.72,4.16-6.51,7.5c-1.19,0.2,0.28-2.28-1.5-1.5c-5.52,5.31-10.98,10.68-10.5,22c-0.39-0.11-0.58-0.42-0.5-1
	c-2.31,0.8,3.49,3.87,1.5,6c2.34,0.66,3.22,2.79,4,5c16.93,10.08,29.76,24.25,53.01,28c9.33,0.33,17.88,1.46,28,1
	c3.1-1.36,5.4-0.82,10-1c31.67-4.81,55.81-14.76,78.5-29c2.1-4.07,5.63-6.7,7-11.5c0.4-2.06-2.39-0.94-2-3
	C405.99,187.81,408.59,188.75,408.52,187.01z"/>
<path fill="#00CC00" stroke="#00CC00" stroke-miterlimit="10" d="M440.02,462.03c0.35-7.28,11.25-8.36,8.51-15.511
	c-6.26-3.319-13.88,0.73-16.51,5.5c-0.65-1.17-1.39-2.27-1-4.5c3.98-3.859,20.31-8.609,21.01,1.5
	c-1.66,5.521-7.29,7.051-9.51,12.011c0.32,2.51,2.45,3.22,3.51,5C443.43,467.27,440.66,464.4,440.02,462.03z"/>
<path fill="#00CC00" d="M445.53,282.02c0.55,1.79,1.68,5.05,0.5,7C441.66,290.14,439.77,280.91,445.53,282.02z"/>
<path fill="#00CC00" stroke="#00CC00" stroke-miterlimit="10" d="M442.02,481.03c-0.61,2.55-3.42,2.899-5.5,4
	C430.62,480.79,441.31,473.09,442.02,481.03z"/>
<path fill="#00CC00" d="M430.52,300.52c-6.94,1.77-14.24-0.42-17-4.5c-2.42,0.43-6.1,2.09-7-1c1.95-0.89,5.21-0.46,6.5-2
	c-0.4-8.07,11.24-13.21,15.5-7.5c-0.58,6.58-7.4,6.92-11.5,10C419.66,300.15,424.99,299.15,430.52,300.52z M426.02,286.02
	c-4.7-2.55-10.49,1.61-10.5,7C419.46,291.12,424.83,290.66,426.02,286.02z"/>
<path fill="#00CC00" d="M413.52,283.52c-1.31,2.14-5.29-0.36-8.5,0.5c0.65,6.13,1.26,9.31,1,16c-3.41-2.92-1.89-10.78-3-16
	c-2.73,0.26-5.27,0.73-8,1c-1.56,4.06,0.59,6.79-3,7.5c1.68,0.62-0.74,3.16-3,5.5c1.82,2.12,4.84,1.06,7,2c-4.86,2.19-11.5,0.3-17,0
	c-4.82-8.76-8.5-27.93-4-39.51c-0.47,11.14,0.75,20.59,2,30.01c1.82,2.58,2.62,8.62,6.5,7.5c0.43-1.94-2.52-4.81-1.5-9
	c2.45-7.93,12.39-5.29,20.5-7.5c0.6-6.49-3.92-15.48,0.5-19.5c0.06,7.27,1.28,13.39,2,20C408.61,281.76,411.21,282.5,413.52,283.52z
	 M386.02,296.02c3.86,0.02,7.09-4.92,7-10.5C385.34,281.94,381.89,291.96,386.02,296.02z"/>
<path d="M381.02,190.01c0.33,9.99-7.78,11.55-16,13c3.53,5.96,12.96,3.41,21,5c-8.62,2.86-19.02,1.21-25-3.5
	c-3.41-0.09-7.73,0.73-8-2.5c1.47-1.1,3.49,0.59,6,0C354.73,189.05,372.84,182.69,381.02,190.01z M362.02,201.51
	c7.68-1.82,17.43-1.57,17-11.5C370.05,186.26,357.89,192.14,362.02,201.51z"/>
<path fill="#00CC00" d="M374.52,295.02c-0.21,3.96-7.32,5.34-11.5,7c-5.26-0.74-9.08-2.93-12-6c1.54,0.37,0.61-1.73,2.5-1
	c0.07-5.77,7.55-11.37,11.5-7c-0.04,5.63-3.4,7.93-8,9C360.74,302.05,371.45,299.17,374.52,295.02z M363.02,289.02
	c-0.1-0.56-0.55-0.78-1-1c-2.79,1.7-6.64,2.36-6,7.5C359.09,294.09,362.61,293.11,363.02,289.02z"/>
<path d="M361.02,185.51c-2.77,1.75-4.9-1.42-8.5-0.5c-1.6,5.73-1.07,13.6-3.5,18.5c-2.07-0.09-2.55-1.78-3.5-3
	c0.58-1.94,1.31-0.13,2,0.5c1.19-4.65,1.68-9.98,2-15.5c-6.77-1.63-17.68,0.65-22.5-0.5c5.79-3.54,15.86-1.87,22.5-2.5
	c0.84-6.49,0.59-14.08,2.5-19.5c0.5,0,1,0,1.5,0c-0.78,6.05,0.05,13.72-1.5,19C354.11,184.09,359.15,183.22,361.02,185.51z"/>
<path fill="#00CC00" d="M345.02,287.52c0,1.5,0,3,0,4.5c-4.52,6.32-13.12,12.16-23,10c-0.76-1.24-1.12-2.88-2-4
	c1.19-10.58-1.4-18.05-1-29.5c0.34-2.02-2.11-1.23-2-3c1.17-0.17,2.15-0.52,2.5-1.5C329.15,270.72,338.77,277.43,345.02,287.52z
	 M343.02,290.52c-3.38-9.65-13.51-16.8-22.5-22.5c0.29,10,2,20.83,1.5,30c4.03-0.77-0.29,2.22,2,2
	C331.19,301.57,340.19,296.61,343.02,290.52z"/>
<path d="M330.52,212.51c-4.36,1.86-7.56-1.76-9.5-4c-20.63,7.53-18.17-30.42-11-41.5c0.37,7.76-8.57,33.11,4,40c1.67,0,3.33,0,5,0
	c-2.17-6.51-1.02-15.64,6-16c7.56,2.08,3.06,14.68-2,16C324.28,210.09,327.11,211.59,330.52,212.51z M322.02,205.51
	c2.56-2.04,7.93-8.73,3-12C320.28,194.28,318.73,202.31,322.02,205.51z"/>
<path fill="#00CC00" d="M293.02,285.02c6.47,1.05,5.91,11.72,8.5,15c-5.12-1.05-4.09-8.25-7-11.5c-4.19,3.98-5.54,10.79-9,15.5
	c-3.96-2.54-2.96-12.71-3.5-17c3.86,1.13,2.03,7.96,3.5,11.5C288.59,294.58,290.28,289.28,293.02,285.02z"/>
<path d="M297.02,191.51c0.27,9.11-6.07,11.6-11,15.5c4.23,6.07,14.62,1.2,20-0.5c-5.12,4.06-17.97,8.8-23,1.5
	c-3.19,0.02-6.93,0.6-6.5-3c2.53-0.73,3.05,2.2,5,0.5C280.36,195.25,289.76,183.88,297.02,191.51z M284.02,204.01
	c5.09-0.78,11.51-4.46,11-12.5C287.64,188.11,284.03,197.37,284.02,204.01z"/>
<path fill="#00CC00" d="M266.02,284.52c8.34-1.84,15.16,2.17,13.5,12c-2.75,4.91-6.49,8.85-13.5,9.5c-9.49,0.31-11.49-14.17-6-20
	C262.64,286.05,263.05,284.99,266.02,284.52z M259.02,291.52c-3.02,18.74,24.05,11.95,17.5-2.5c-2.79-1.72-5.81-3.2-10.5-3
	C264.4,288.56,261.91,290.24,259.02,291.52z"/>
<path d="M275.02,211.01c-4.5,1-3.62-3.38-5.5-5c-7.5,3.5-24.61,6-24-6.5c2.46-8.87,10.14-12.52,21-13c0.92-6.96-3.64-10.97-2-17
	c4.86,4.66,3.27,17.22,7,21.5C269.26,195.78,271.26,207.45,275.02,211.01z M269.02,204.01c-1.01-4.65-0.96-10.38-2-15
	c-9.84-0.44-19.28,2.78-19,14C251.76,208.4,263.5,206.51,269.02,204.01z"/>
<path fill="#FF0000" stroke="#FF0000" stroke-miterlimit="10" d="M227.01,120.01c3.75,6.67,18.37,3.25,24.51,4
	c-7.94,2.53-22.29,3.56-26.51-3c-0.89-5.23,1.92-6.75,3-10c4.54-1.27,9.74-7.44,14-3C235.01,108.14,226.73,110.96,227.01,120.01z"/>
<path fill="#FF0000" stroke="#FF0000" stroke-miterlimit="10" d="M210.01,93.01c2.57,1.59,3.65,4.68,5,7.5
	C212.1,99.26,210.4,96.78,210.01,93.01z"/>
<path fill="#FF0000" stroke="#FF0000" stroke-miterlimit="10" d="M211.01,103.01c2.1,4.65,2.54,15.48,1.5,23
	C209.95,121.15,210.98,109.94,211.01,103.01z"/>
<path fill="#FF0000" stroke="#FF0000" stroke-miterlimit="10" d="M189.01,104.01c7.44,1.56,12.76,5.24,14,13
	c-1.57,3.25-5.51,4.16-10.5,4c0,4.67,2.92,9.07,2,13c-2.44-0.56-1.91-4.09-2.5-6.5c-0.73-1.6-1.89-2.78-1.5-5.5
	c-2.7-0.63-8.13,1.46-8.5-1.5c2.57-1.29,5.22,0.58,8-0.5C190.83,113.95,186.12,108.91,189.01,104.01z M192.01,119.51
	c14.12,2,7.92-12.1,0-12.5C191.25,112.78,191.99,113.48,192.01,119.51z"/>
<path fill="#FF0000" stroke="#FF0000" stroke-miterlimit="10" d="M180.01,104.51c6.01,2.42,4.15,12.91,0.5,16.5
	c-10.33,6.75-26.16-1.58-18.5-14C166.62,104.27,173.54,102.7,180.01,104.51z M162.01,114.01c0.59,14.75,29.4,6.13,17.5-8
	c-5.69-1.6-11.07-0.22-15.5,2c-0.27,1.77,1.77,1.23,1.5,3c-1.41,0.41-1.29-0.71-2.5-0.5c-0.35,3.52,3.23,3.1,4,5.5
	C165.36,115.64,162.96,113.42,162.01,114.01z"/>
<path fill="#FF0000" stroke="#FF0000" stroke-miterlimit="10" d="M159.01,84.01c-1.05,1.61-3.6,1.73-5.5,2.5
	c0.21-1.63,2.08-1.59,2.5-3c-6.34-0.87-15.16,0.73-22.5,1.5c-0.46,14.81,2.19,33.46,4,46c-2.73,1.08-2.68-4.55-2.5-8
	c-4.24-9.59-2.3-25.37-3.5-38c-9.12,2.06-20.79,4.19-27,7.5c-1.59-3.71,4.37-3.88,7.5-4.5c2.56-1.61,6.92-1.41,9.5-3
	c3.88,0.38,5.5-1.5,9.5-1c1.79-0.57-0.92-3.3,0.5-3.5c1.31-1.17,2.16,1.16,2,3C140.98,83.24,153.71,78.58,159.01,84.01z"/>
<path d="M89.01,709.04c0.27,0.72-0.59,2.58,0.5,2.5c-0.98,1.729-2-0.61-3-0.5C86.6,709.63,87.38,708.91,89.01,709.04z"/>
<g>
	<path fill="#00CC00" stroke="#00CC00" stroke-miterlimit="10" d="M607.658,555.633c-0.034-0.151-0.059-0.302-0.077-0.453
		c-0.751-0.352-1.34-0.817-1.816-1.532c-5.526-2.748-12.341-2.559-17.058-6.854c-0.951-0.866-2.369,0.544-1.414,1.414
		c4.851,4.419,11.569,4.303,17.184,7.02c-4.517-0.09-9.094-1.58-12.078-0.481c-2.771-0.45-5.416-1.409-8.133-2.209
		c-1.24-0.365-1.766,1.564-0.531,1.928c3.733,1.1,7.33,2.439,11.266,2.536c0.497,0.012,0.798-0.279,0.911-0.642
		c2.11,0.331,4.139,0.617,6.167,0.879c-4.12,1.745-8.764,2.445-12.583,4.899c-1.081,0.694-0.079,2.426,1.01,1.727
		c4.643-2.982,10.325-3.484,15.043-6.192c0.109,0.013,0.218,0.026,0.328,0.04c0.003-0.043,0.009-0.085,0.019-0.127
		c-0.01-0.032-0.021-0.064-0.032-0.097c0.024-0.015,0.049-0.032,0.073-0.047c0.069-0.177,0.195-0.341,0.393-0.47
		c0.348-0.228,0.697-0.441,1.045-0.659C607.443,556.074,607.538,555.847,607.658,555.633z"/>
	<path fill="#00CC00" stroke="#00CC00" stroke-miterlimit="10" d="M402.52,322.02c-3.768,1.322-2.875,7.312-3.667,11.619
		c0.004,0.04,0.022,0.069,0.022,0.111c-0.008,1.995-0.118,4.008,0.214,5.984c0.059,0.349-0.054,0.634-0.242,0.85
		c0.166,0.705,0.485,1.255,1.172,1.436c0.09-0.577,0.038-1.295-0.007-2.007c-0.331-0.121-0.57-0.415-0.513-0.888
		c0.231-1.902,0.195-3.833,0.911-5.641c0.095-0.239,0.257-0.392,0.438-0.5C401.913,329.155,404.765,323.592,402.52,322.02z"/>
	<path fill="#00CC00" stroke="#00CC00" stroke-miterlimit="10" d="M539.53,550.03c-3.96,3.52-10.14-2.99-16.5-2
		c-0.33-0.67-1.07-0.931-2-1C528.12,544.85,534.97,549.66,539.53,550.03z"/>
	<path fill="#00CC00" stroke="#00CC00" stroke-miterlimit="10" d="M508.03,543.03c-0.6,2.42-4.26,0.17-6,0.5
		c-2.5-4.011-9.17-3.83-11-8.5C497.26,536.91,502.68,541.89,508.03,543.03z"/>
	<path fill="#00CC00" stroke="#00CC00" stroke-miterlimit="10" d="M475.53,520.53c2.86,3.47,6.61,6.05,9.5,9.5
		C479.61,529.11,477.04,525.35,475.53,520.53z"/>
	<path fill="#00CC00" stroke="#00CC00" stroke-miterlimit="10" d="M419.52,421.52c1.25,0.261,3.02-0.01,3,1.5
		C421.17,422.88,418.82,423.73,419.52,421.52z"/>
	<path fill="#00CC00" stroke="#00CC00" stroke-miterlimit="10" d="M414.02,411.02c-2.48,0.131-3.57-3.159-3-4.5
		C412.91,407.14,413.41,409.13,414.02,411.02z"/>
	<path fill="#00CC00" stroke="#00CC00" stroke-miterlimit="10" d="M405.52,370.02c-0.84,3.5,0.6,4.26,0.5,8c-2.93-1.04-2.47-4.7-2-8
		C404.52,370.02,405.02,370.02,405.52,370.02z"/>
	<path fill="#00CC00" stroke="#00CC00" stroke-miterlimit="10" d="M404.02,355.02c-2.35-0.53,0.82,1.69-1,2
		c-3.06-2.12-1.06-5.13-1-9C404.34,348.7,401.92,354.12,404.02,355.02z"/>
	<path fill="#00CC00" stroke="#00CC00" stroke-miterlimit="10" d="M410.464,399.234c-1.433-3.526-1.968-7.255-2.5-11
		c-0.181-1.273-2.108-0.729-1.929,0.531c0.532,3.745,1.067,7.474,2.5,11C409.015,400.944,410.95,400.43,410.464,399.234z"/>
	<path fill="#00CC00" stroke="#00CC00" stroke-miterlimit="10" d="M571.5,551c-6.006-0.537-11.959-1.436-18-1.5
		c-1.29-0.014-1.289,1.986,0,2c6.041,0.064,11.994,0.963,18,1.5C572.785,553.115,572.774,551.114,571.5,551z"/>
	<path fill="#00CC00" stroke="#00CC00" stroke-miterlimit="10" d="M472.964,515.234c-1.233-4.446-4.067-8.191-7.257-11.441
		c-0.904-0.922-2.318,0.493-1.414,1.414c2.953,3.009,5.601,6.439,6.743,10.559C471.38,517.007,473.31,516.479,472.964,515.234z"/>
</g>
</svg>
